<svg xmlns="http://www.w3.org/2000/svg" viewBox="0 0 50 50">
  <!-- Pino do Mapa (Azul) -->
  <path d="M25,2 A18,18 0 0,0 7,20 C7,35 25,48 25,48 C25,48 43,35 43,20 A18,18 0 0,0 25,2 Z" fill="#0ea5e9" />
  <!-- Fundo Vazado -->
  <circle cx="25" cy="20" r="12" fill="#ffffff" />
  <!-- Hélices Eólicas (Laranja) -->
  <g fill="#f97316">
    <path d="M 23.5 20 L 22.5 11 A 2.5 2.5 0 0 1 27.5 11 L 26.5 20 Z" />
    <path d="M 23.5 20 L 22.5 11 A 2.5 2.5 0 0 1 27.5 11 L 26.5 20 Z" transform="rotate(120 25 20)" />
    <path d="M 23.5 20 L 22.5 11 A 2.5 2.5 0 0 1 27.5 11 L 26.5 20 Z" transform="rotate(240 25 20)" />
  </g>
  <!-- Eixo Central do Motor -->
  <circle cx="25" cy="20" r="2.5" fill="#334155" />
</svg>
